<mxfile host="Electron" modified="2024-03-31T18:38:49.070Z" agent="Mozilla/5.0 (Windows NT 10.0; Win64; x64) AppleWebKit/537.36 (KHTML, like Gecko) draw.io/24.0.4 Chrome/120.0.6099.109 Electron/28.1.0 Safari/537.36" etag="JXXNv4BhWbCkxfHcumcJ" version="24.0.4" type="device" pages="2">
  <diagram name="Page-1" id="B4uM__Kfenrr_k4Z653Y">
    <mxGraphModel dx="1767" dy="1880" grid="1" gridSize="10" guides="1" tooltips="1" connect="1" arrows="1" fold="1" page="1" pageScale="1" pageWidth="850" pageHeight="1100" math="0" shadow="0">
      <root>
        <mxCell id="0" />
        <mxCell id="1" parent="0" />
        <mxCell id="FZwvKt1NrUwJRueItn5r-1" value="DispatcherServlet" style="rounded=0;whiteSpace=wrap;html=1;fillColor=#008a00;fontColor=#ffffff;strokeColor=#005700;" vertex="1" parent="1">
          <mxGeometry x="330" y="120" width="190" height="60" as="geometry" />
        </mxCell>
        <mxCell id="FZwvKt1NrUwJRueItn5r-3" value="Handler Methods" style="rounded=0;whiteSpace=wrap;html=1;fillColor=#6a00ff;fontColor=#ffffff;strokeColor=#3700CC;" vertex="1" parent="1">
          <mxGeometry x="330" y="280" width="190" height="60" as="geometry" />
        </mxCell>
        <mxCell id="FZwvKt1NrUwJRueItn5r-4" value="Dispatch HTTP Request" style="endArrow=classic;html=1;rounded=0;" edge="1" parent="1" source="FZwvKt1NrUwJRueItn5r-1" target="FZwvKt1NrUwJRueItn5r-3">
          <mxGeometry width="50" height="50" relative="1" as="geometry">
            <mxPoint x="320" y="330" as="sourcePoint" />
            <mxPoint x="370" y="280" as="targetPoint" />
          </mxGeometry>
        </mxCell>
        <mxCell id="FZwvKt1NrUwJRueItn5r-5" value="Controllers" style="rounded=0;whiteSpace=wrap;html=1;fillColor=#0050ef;fontColor=#ffffff;strokeColor=#001DBC;" vertex="1" parent="1">
          <mxGeometry y="280" width="190" height="60" as="geometry" />
        </mxCell>
        <mxCell id="FZwvKt1NrUwJRueItn5r-6" value="Have" style="endArrow=open;endFill=1;endSize=12;html=1;rounded=0;" edge="1" parent="1" source="FZwvKt1NrUwJRueItn5r-5" target="FZwvKt1NrUwJRueItn5r-3">
          <mxGeometry width="160" relative="1" as="geometry">
            <mxPoint x="340" y="320" as="sourcePoint" />
            <mxPoint x="500" y="320" as="targetPoint" />
          </mxGeometry>
        </mxCell>
        <mxCell id="FZwvKt1NrUwJRueItn5r-7" value="Models" style="rounded=0;whiteSpace=wrap;html=1;fillColor=#d80073;fontColor=#ffffff;strokeColor=#A50040;" vertex="1" parent="1">
          <mxGeometry x="110" y="480" width="190" height="60" as="geometry" />
        </mxCell>
        <mxCell id="FZwvKt1NrUwJRueItn5r-8" value="Models" style="rounded=0;whiteSpace=wrap;html=1;fillColor=#a20025;fontColor=#ffffff;strokeColor=#6F0000;" vertex="1" parent="1">
          <mxGeometry x="550" y="480" width="190" height="60" as="geometry" />
        </mxCell>
        <mxCell id="FZwvKt1NrUwJRueItn5r-10" value="Acting with" style="endArrow=classic;html=1;rounded=0;" edge="1" parent="1" source="FZwvKt1NrUwJRueItn5r-3" target="FZwvKt1NrUwJRueItn5r-7">
          <mxGeometry width="50" height="50" relative="1" as="geometry">
            <mxPoint x="440" y="430" as="sourcePoint" />
            <mxPoint x="490" y="380" as="targetPoint" />
          </mxGeometry>
        </mxCell>
        <mxCell id="FZwvKt1NrUwJRueItn5r-11" value="Acting with" style="endArrow=classic;html=1;rounded=0;" edge="1" parent="1" source="FZwvKt1NrUwJRueItn5r-3" target="FZwvKt1NrUwJRueItn5r-8">
          <mxGeometry width="50" height="50" relative="1" as="geometry">
            <mxPoint x="440" y="430" as="sourcePoint" />
            <mxPoint x="490" y="380" as="targetPoint" />
          </mxGeometry>
        </mxCell>
        <mxCell id="FZwvKt1NrUwJRueItn5r-12" value="ModelAndView" style="rounded=0;whiteSpace=wrap;html=1;fillColor=#1ba1e2;fontColor=#ffffff;strokeColor=#006EAF;" vertex="1" parent="1">
          <mxGeometry x="330" y="480" width="190" height="60" as="geometry" />
        </mxCell>
        <mxCell id="FZwvKt1NrUwJRueItn5r-13" value="Return" style="endArrow=classic;html=1;rounded=0;" edge="1" parent="1" source="FZwvKt1NrUwJRueItn5r-3" target="FZwvKt1NrUwJRueItn5r-12">
          <mxGeometry width="50" height="50" relative="1" as="geometry">
            <mxPoint x="440" y="430" as="sourcePoint" />
            <mxPoint x="490" y="380" as="targetPoint" />
          </mxGeometry>
        </mxCell>
        <mxCell id="FZwvKt1NrUwJRueItn5r-14" value="Client" style="shape=umlActor;verticalLabelPosition=bottom;verticalAlign=top;html=1;outlineConnect=0;" vertex="1" parent="1">
          <mxGeometry x="410" y="-70" width="30" height="60" as="geometry" />
        </mxCell>
        <mxCell id="FZwvKt1NrUwJRueItn5r-15" value="Send HTTP Requests" style="endArrow=classic;html=1;rounded=0;" edge="1" parent="1" source="FZwvKt1NrUwJRueItn5r-14" target="FZwvKt1NrUwJRueItn5r-1">
          <mxGeometry width="50" height="50" relative="1" as="geometry">
            <mxPoint x="350" y="50" as="sourcePoint" />
            <mxPoint x="400" as="targetPoint" />
          </mxGeometry>
        </mxCell>
        <mxCell id="FZwvKt1NrUwJRueItn5r-16" value="Generate HTTP Response&lt;div&gt;Response to&lt;/div&gt;" style="endArrow=classic;html=1;rounded=0;" edge="1" parent="1" source="-ZjLwWFF5hAPHjPAy_QF-1" target="FZwvKt1NrUwJRueItn5r-14">
          <mxGeometry width="50" height="50" relative="1" as="geometry">
            <mxPoint x="430" y="380" as="sourcePoint" />
            <mxPoint x="480" y="330" as="targetPoint" />
            <Array as="points">
              <mxPoint x="820" y="660" />
              <mxPoint x="820" y="-40" />
            </Array>
          </mxGeometry>
        </mxCell>
        <mxCell id="-ZjLwWFF5hAPHjPAy_QF-1" value="Spring MVC" style="rounded=0;whiteSpace=wrap;html=1;fillColor=#e51400;fontColor=#ffffff;strokeColor=#B20000;" vertex="1" parent="1">
          <mxGeometry x="365" y="630" width="120" height="60" as="geometry" />
        </mxCell>
        <mxCell id="-ZjLwWFF5hAPHjPAy_QF-2" value="Generate HTTP Response" style="endArrow=classic;html=1;rounded=0;" edge="1" parent="1" source="-ZjLwWFF5hAPHjPAy_QF-1" target="FZwvKt1NrUwJRueItn5r-12">
          <mxGeometry width="50" height="50" relative="1" as="geometry">
            <mxPoint x="410" y="640" as="sourcePoint" />
            <mxPoint x="460" y="590" as="targetPoint" />
          </mxGeometry>
        </mxCell>
      </root>
    </mxGraphModel>
  </diagram>
  <diagram id="48U_oeriSaqu0p_L9ECO" name="Page-2">
    <mxGraphModel dx="1878" dy="829" grid="1" gridSize="10" guides="1" tooltips="1" connect="1" arrows="1" fold="1" page="1" pageScale="1" pageWidth="850" pageHeight="1100" math="0" shadow="0">
      <root>
        <mxCell id="0" />
        <mxCell id="1" parent="0" />
        <mxCell id="m6IkcwRHZDNpT2d-DIyQ-1" value="DispatcherHandler" style="rounded=0;whiteSpace=wrap;html=1;fillColor=#60a917;fontColor=#ffffff;strokeColor=#2D7600;" vertex="1" parent="1">
          <mxGeometry x="365" y="230" width="120" height="60" as="geometry" />
        </mxCell>
        <mxCell id="ERW3NHWaoJq-7ZuQymOv-1" value="Handler Methods" style="rounded=0;whiteSpace=wrap;html=1;fillColor=#008a00;fontColor=#ffffff;strokeColor=#005700;" vertex="1" parent="1">
          <mxGeometry x="365" y="390" width="120" height="60" as="geometry" />
        </mxCell>
        <mxCell id="ERW3NHWaoJq-7ZuQymOv-2" value="2. Dispatching HTTP Request" style="endArrow=classic;html=1;rounded=0;" edge="1" parent="1" source="m6IkcwRHZDNpT2d-DIyQ-1" target="ERW3NHWaoJq-7ZuQymOv-1">
          <mxGeometry width="50" height="50" relative="1" as="geometry">
            <mxPoint x="420" y="400" as="sourcePoint" />
            <mxPoint x="470" y="350" as="targetPoint" />
          </mxGeometry>
        </mxCell>
        <mxCell id="ERW3NHWaoJq-7ZuQymOv-3" value="Client" style="shape=umlActor;verticalLabelPosition=bottom;verticalAlign=top;html=1;outlineConnect=0;" vertex="1" parent="1">
          <mxGeometry x="410" y="40" width="30" height="60" as="geometry" />
        </mxCell>
        <mxCell id="ERW3NHWaoJq-7ZuQymOv-5" value="1. Send HTTP Request" style="endArrow=classic;html=1;rounded=0;" edge="1" parent="1" source="ERW3NHWaoJq-7ZuQymOv-3" target="m6IkcwRHZDNpT2d-DIyQ-1">
          <mxGeometry width="50" height="50" relative="1" as="geometry">
            <mxPoint x="480" y="200" as="sourcePoint" />
            <mxPoint x="530" y="150" as="targetPoint" />
          </mxGeometry>
        </mxCell>
        <mxCell id="ERW3NHWaoJq-7ZuQymOv-6" value="Controllers" style="rounded=0;whiteSpace=wrap;html=1;fillColor=#1ba1e2;fontColor=#ffffff;strokeColor=#006EAF;" vertex="1" parent="1">
          <mxGeometry x="80" y="390" width="120" height="60" as="geometry" />
        </mxCell>
        <mxCell id="ERW3NHWaoJq-7ZuQymOv-7" value="Have" style="endArrow=open;endFill=1;endSize=12;html=1;rounded=0;" edge="1" parent="1" source="ERW3NHWaoJq-7ZuQymOv-6" target="ERW3NHWaoJq-7ZuQymOv-1">
          <mxGeometry width="160" relative="1" as="geometry">
            <mxPoint x="340" y="410" as="sourcePoint" />
            <mxPoint x="500" y="410" as="targetPoint" />
          </mxGeometry>
        </mxCell>
        <mxCell id="ERW3NHWaoJq-7ZuQymOv-8" value="Flux" style="rounded=0;whiteSpace=wrap;html=1;fillColor=#0050ef;fontColor=#ffffff;strokeColor=#001DBC;" vertex="1" parent="1">
          <mxGeometry x="245" y="580" width="120" height="60" as="geometry" />
        </mxCell>
        <mxCell id="ERW3NHWaoJq-7ZuQymOv-9" value="Mono" style="rounded=0;whiteSpace=wrap;html=1;fillColor=#6a00ff;fontColor=#ffffff;strokeColor=#3700CC;" vertex="1" parent="1">
          <mxGeometry x="485" y="580" width="120" height="60" as="geometry" />
        </mxCell>
        <mxCell id="ERW3NHWaoJq-7ZuQymOv-10" value="3. Handle and return" style="endArrow=classic;html=1;rounded=0;" edge="1" parent="1" source="ERW3NHWaoJq-7ZuQymOv-1" target="ERW3NHWaoJq-7ZuQymOv-8">
          <mxGeometry width="50" height="50" relative="1" as="geometry">
            <mxPoint x="440" y="570" as="sourcePoint" />
            <mxPoint x="490" y="520" as="targetPoint" />
          </mxGeometry>
        </mxCell>
        <mxCell id="ERW3NHWaoJq-7ZuQymOv-11" value="3. Handle and return" style="endArrow=classic;html=1;rounded=0;" edge="1" parent="1" source="ERW3NHWaoJq-7ZuQymOv-1" target="ERW3NHWaoJq-7ZuQymOv-9">
          <mxGeometry width="50" height="50" relative="1" as="geometry">
            <mxPoint x="440" y="570" as="sourcePoint" />
            <mxPoint x="490" y="520" as="targetPoint" />
          </mxGeometry>
        </mxCell>
        <mxCell id="ERW3NHWaoJq-7ZuQymOv-12" value="Spring Webflux" style="rounded=0;whiteSpace=wrap;html=1;fillColor=#d80073;fontColor=#ffffff;strokeColor=#A50040;" vertex="1" parent="1">
          <mxGeometry x="365" y="770" width="120" height="60" as="geometry" />
        </mxCell>
        <mxCell id="ERW3NHWaoJq-7ZuQymOv-13" value="4. Receiving" style="endArrow=classic;html=1;rounded=0;" edge="1" parent="1" source="ERW3NHWaoJq-7ZuQymOv-12" target="ERW3NHWaoJq-7ZuQymOv-8">
          <mxGeometry width="50" height="50" relative="1" as="geometry">
            <mxPoint x="490" y="640" as="sourcePoint" />
            <mxPoint x="540" y="590" as="targetPoint" />
          </mxGeometry>
        </mxCell>
        <mxCell id="ERW3NHWaoJq-7ZuQymOv-14" value="4. Receiving" style="endArrow=classic;html=1;rounded=0;" edge="1" parent="1" source="ERW3NHWaoJq-7ZuQymOv-12" target="ERW3NHWaoJq-7ZuQymOv-9">
          <mxGeometry width="50" height="50" relative="1" as="geometry">
            <mxPoint x="490" y="640" as="sourcePoint" />
            <mxPoint x="540" y="590" as="targetPoint" />
          </mxGeometry>
        </mxCell>
        <mxCell id="ERW3NHWaoJq-7ZuQymOv-15" value="ServerResponse" style="rounded=0;whiteSpace=wrap;html=1;fillColor=#a20025;fontColor=#ffffff;strokeColor=#6F0000;" vertex="1" parent="1">
          <mxGeometry x="100" y="770" width="120" height="60" as="geometry" />
        </mxCell>
        <mxCell id="ERW3NHWaoJq-7ZuQymOv-16" value="5. Generating" style="endArrow=classic;html=1;rounded=0;" edge="1" parent="1" source="ERW3NHWaoJq-7ZuQymOv-12" target="ERW3NHWaoJq-7ZuQymOv-15">
          <mxGeometry width="50" height="50" relative="1" as="geometry">
            <mxPoint x="710" y="650" as="sourcePoint" />
            <mxPoint x="760" y="600" as="targetPoint" />
          </mxGeometry>
        </mxCell>
        <mxCell id="ERW3NHWaoJq-7ZuQymOv-17" value="6. Use generated ServerResponse to response back to" style="endArrow=classic;html=1;rounded=0;" edge="1" parent="1" source="ERW3NHWaoJq-7ZuQymOv-12" target="ERW3NHWaoJq-7ZuQymOv-3">
          <mxGeometry width="50" height="50" relative="1" as="geometry">
            <mxPoint x="940" y="540" as="sourcePoint" />
            <mxPoint x="990" y="490" as="targetPoint" />
            <Array as="points">
              <mxPoint x="790" y="800" />
              <mxPoint x="790" y="70" />
            </Array>
          </mxGeometry>
        </mxCell>
      </root>
    </mxGraphModel>
  </diagram>
</mxfile>
